<?xml version="1.0" encoding="UTF-8"?>
<svg xmlns="http://www.w3.org/2000/svg" xmlns:xlink="http://www.w3.org/1999/xlink" width="648pt" height="288pt" viewBox="0 0 648 288" version="1.1">
<g id="surface4">
<rect x="0" y="0" width="648" height="288" style="fill:rgb(100%,100%,100%);fill-opacity:1;stroke:none;"/>
<path style=" stroke:none;fill-rule:nonzero;fill:rgb(85.882353%,4.313725%,35.686275%);fill-opacity:1;" d="M 154.664062 144 C 154.664062 158.925781 142.5625 171.027344 127.636719 171.027344 C 112.707031 171.027344 100.609375 158.925781 100.609375 144 C 100.609375 129.074219 112.707031 116.972656 127.636719 116.972656 C 142.5625 116.972656 154.664062 129.074219 154.664062 144 "/>
<path style=" stroke:none;fill-rule:nonzero;fill:rgb(39.215686%,58.431373%,92.941176%);fill-opacity:1;" d="M 351.027344 144 C 351.027344 158.925781 338.925781 171.027344 324 171.027344 C 309.074219 171.027344 296.972656 158.925781 296.972656 144 C 296.972656 129.074219 309.074219 116.972656 324 116.972656 C 338.925781 116.972656 351.027344 129.074219 351.027344 144 "/>
<path style=" stroke:none;fill-rule:nonzero;fill:rgb(100%,63.921569%,9.803922%);fill-opacity:1;" d="M 547.390625 144 C 547.390625 158.925781 535.292969 171.027344 520.363281 171.027344 C 505.4375 171.027344 493.335938 158.925781 493.335938 144 C 493.335938 129.074219 505.4375 116.972656 520.363281 116.972656 C 535.292969 116.972656 547.390625 129.074219 547.390625 144 "/>
<path style="fill:none;stroke-width:1.066978;stroke-linecap:butt;stroke-linejoin:round;stroke:rgb(0%,0%,0%);stroke-opacity:1;stroke-miterlimit:10;" d="M 176.726562 144 L 274.910156 144 "/>
<path style="fill-rule:nonzero;fill:rgb(0%,0%,0%);fill-opacity:1;stroke-width:1.066978;stroke-linecap:butt;stroke-linejoin:round;stroke:rgb(0%,0%,0%);stroke-opacity:1;stroke-miterlimit:10;" d="M 259.320312 153 L 274.910156 144 L 259.320312 135 Z M 259.320312 153 "/>
<path style="fill:none;stroke-width:1.066978;stroke-linecap:butt;stroke-linejoin:round;stroke:rgb(0%,0%,0%);stroke-opacity:1;stroke-miterlimit:10;" d="M 373.089844 144 L 471.273438 144 "/>
<path style="fill-rule:nonzero;fill:rgb(0%,0%,0%);fill-opacity:1;stroke-width:1.066978;stroke-linecap:butt;stroke-linejoin:round;stroke:rgb(0%,0%,0%);stroke-opacity:1;stroke-miterlimit:10;" d="M 455.683594 153 L 471.273438 144 L 455.683594 135 Z M 455.683594 153 "/>
<path style=" stroke:none;fill-rule:nonzero;fill:rgb(100%,100%,100%);fill-opacity:1;" d="M 140.730469 151.011719 L 140.722656 151.40625 L 140.699219 151.792969 L 140.660156 152.171875 L 140.605469 152.546875 L 140.535156 152.914062 L 140.449219 153.273438 L 140.347656 153.628906 L 140.230469 153.980469 L 140.097656 154.320312 L 139.949219 154.660156 L 139.792969 154.988281 L 139.613281 155.308594 L 139.421875 155.617188 L 139.210938 155.921875 L 138.984375 156.214844 L 138.738281 156.5 L 138.480469 156.773438 L 138.203125 157.042969 L 137.90625 157.300781 L 137.59375 157.546875 L 137.265625 157.785156 L 136.921875 158.007812 L 136.558594 158.222656 L 136.179688 158.425781 L 135.78125 158.621094 L 135.371094 158.804688 L 134.941406 158.976562 L 134.492188 159.140625 L 134.03125 159.292969 L 133.550781 159.4375 L 133.054688 159.566406 L 132.542969 159.679688 L 132.011719 159.777344 L 131.464844 159.863281 L 130.898438 159.9375 L 130.3125 159.996094 L 129.710938 160.042969 L 129.089844 160.078125 L 128.449219 160.097656 L 127.792969 160.105469 L 126.648438 160.085938 L 125.558594 160.023438 L 124.515625 159.921875 L 123.527344 159.777344 L 122.589844 159.59375 L 121.703125 159.367188 L 120.871094 159.101562 L 120.089844 158.796875 L 119.359375 158.449219 L 118.679688 158.058594 L 118.046875 157.632812 L 117.464844 157.167969 L 116.933594 156.667969 L 116.445312 156.132812 L 116.003906 155.558594 L 115.613281 154.949219 L 115.269531 154.304688 L 114.972656 153.621094 L 114.722656 152.902344 L 114.519531 152.148438 L 118.632812 151.324219 L 118.699219 151.566406 L 118.773438 151.804688 L 118.851562 152.039062 L 118.9375 152.265625 L 119.027344 152.492188 L 119.128906 152.710938 L 119.234375 152.925781 L 119.34375 153.136719 L 119.464844 153.34375 L 119.589844 153.546875 L 119.722656 153.746094 L 119.863281 153.9375 L 120.015625 154.125 L 120.175781 154.304688 L 120.34375 154.480469 L 120.523438 154.652344 L 120.710938 154.816406 L 120.90625 154.976562 L 121.109375 155.132812 L 121.324219 155.28125 L 121.550781 155.421875 L 121.789062 155.554688 L 122.035156 155.679688 L 122.292969 155.800781 L 122.5625 155.914062 L 122.839844 156.023438 L 123.128906 156.125 L 123.429688 156.21875 L 123.738281 156.308594 L 124.058594 156.390625 L 124.386719 156.46875 L 124.730469 156.535156 L 125.089844 156.597656 L 125.457031 156.648438 L 125.839844 156.691406 L 126.238281 156.730469 L 126.644531 156.757812 L 127.066406 156.777344 L 127.5 156.789062 L 127.949219 156.792969 L 128.324219 156.789062 L 128.691406 156.78125 L 129.054688 156.765625 L 129.410156 156.742188 L 129.757812 156.714844 L 130.101562 156.679688 L 130.441406 156.640625 L 130.773438 156.59375 L 131.097656 156.539062 L 131.414062 156.480469 L 131.726562 156.410156 L 132.027344 156.335938 L 132.320312 156.25 L 132.605469 156.160156 L 132.882812 156.066406 L 133.148438 155.960938 L 133.40625 155.851562 L 133.65625 155.734375 L 133.894531 155.609375 L 134.128906 155.480469 L 134.347656 155.34375 L 134.558594 155.199219 L 134.761719 155.046875 L 134.953125 154.886719 L 135.132812 154.71875 L 135.304688 154.542969 L 135.464844 154.363281 L 135.613281 154.171875 L 135.753906 153.976562 L 135.882812 153.769531 L 136.003906 153.550781 L 136.117188 153.328125 L 136.210938 153.09375 L 136.296875 152.851562 L 136.367188 152.601562 L 136.425781 152.34375 L 136.46875 152.078125 L 136.503906 151.804688 L 136.519531 151.523438 L 136.527344 151.234375 L 136.519531 150.933594 L 136.5 150.644531 L 136.464844 150.367188 L 136.414062 150.101562 L 136.351562 149.847656 L 136.273438 149.601562 L 136.179688 149.371094 L 136.074219 149.152344 L 135.953125 148.941406 L 135.816406 148.746094 L 135.671875 148.558594 L 135.519531 148.375 L 135.351562 148.203125 L 135.171875 148.035156 L 134.984375 147.875 L 134.78125 147.71875 L 134.570312 147.570312 L 134.34375 147.429688 L 134.109375 147.296875 L 133.859375 147.167969 L 133.601562 147.046875 L 133.335938 146.925781 L 133.054688 146.8125 L 132.769531 146.703125 L 132.472656 146.59375 L 132.164062 146.492188 L 131.847656 146.394531 L 131.519531 146.300781 L 131.183594 146.210938 L 130.835938 146.121094 L 130.480469 146.039062 L 130.121094 145.953125 L 129.75 145.863281 L 129.371094 145.773438 L 128.988281 145.683594 L 128.59375 145.59375 L 128.195312 145.5 L 127.785156 145.40625 L 127.371094 145.308594 L 126.949219 145.210938 L 126.683594 145.152344 L 126.160156 145.035156 L 125.628906 144.910156 L 125.367188 144.847656 L 125.101562 144.785156 L 124.835938 144.71875 L 124.570312 144.65625 L 124.300781 144.589844 L 124.039062 144.515625 L 123.523438 144.367188 L 123.265625 144.285156 L 123.011719 144.207031 L 122.761719 144.121094 L 122.507812 144.035156 L 122.261719 143.949219 L 122.011719 143.859375 L 121.769531 143.765625 L 121.527344 143.667969 L 121.292969 143.566406 L 121.058594 143.460938 L 120.828125 143.351562 L 120.375 143.125 L 120.152344 143.003906 L 119.714844 142.761719 L 119.5 142.632812 L 119.289062 142.5 L 119.085938 142.367188 L 118.886719 142.222656 L 118.691406 142.078125 L 118.507812 141.925781 L 118.324219 141.769531 L 118.148438 141.609375 L 117.976562 141.445312 L 117.8125 141.273438 L 117.65625 141.097656 L 117.503906 140.914062 L 117.359375 140.722656 L 117.21875 140.527344 L 117.085938 140.328125 L 116.960938 140.121094 L 116.84375 139.910156 L 116.730469 139.691406 L 116.625 139.46875 L 116.523438 139.242188 L 116.433594 139.007812 L 116.347656 138.765625 L 116.273438 138.515625 L 116.207031 138.257812 L 116.148438 137.992188 L 116.101562 137.71875 L 116.058594 137.441406 L 116.027344 137.15625 L 116.007812 136.863281 L 115.992188 136.5625 L 115.988281 136.253906 L 115.996094 135.816406 L 116.023438 135.390625 L 116.070312 134.976562 L 116.128906 134.578125 L 116.210938 134.191406 L 116.308594 133.816406 L 116.425781 133.457031 L 116.558594 133.109375 L 116.707031 132.773438 L 116.878906 132.453125 L 117.066406 132.136719 L 117.269531 131.835938 L 117.488281 131.542969 L 117.71875 131.265625 L 117.960938 130.996094 L 118.21875 130.738281 L 118.492188 130.496094 L 118.777344 130.261719 L 119.078125 130.039062 L 119.390625 129.828125 L 119.714844 129.628906 L 120.054688 129.441406 L 120.402344 129.265625 L 120.761719 129.101562 L 121.132812 128.945312 L 121.519531 128.800781 L 121.914062 128.671875 L 122.320312 128.546875 L 122.738281 128.4375 L 123.167969 128.339844 L 123.609375 128.25 L 124.054688 128.171875 L 124.507812 128.101562 L 124.96875 128.042969 L 125.4375 127.988281 L 125.910156 127.949219 L 126.390625 127.914062 L 126.882812 127.890625 L 127.378906 127.878906 L 127.882812 127.875 L 128.453125 127.878906 L 129.011719 127.890625 L 129.550781 127.914062 L 130.074219 127.949219 L 130.582031 127.988281 L 131.070312 128.042969 L 131.542969 128.101562 L 132 128.171875 L 132.4375 128.25 L 132.859375 128.339844 L 133.265625 128.433594 L 133.660156 128.535156 L 134.042969 128.648438 L 134.410156 128.769531 L 134.765625 128.902344 L 135.109375 129.042969 L 135.4375 129.191406 L 135.753906 129.351562 L 136.058594 129.519531 L 136.351562 129.695312 L 136.628906 129.882812 L 136.894531 130.078125 L 137.152344 130.28125 L 137.394531 130.496094 L 137.628906 130.71875 L 137.847656 130.949219 L 138.058594 131.191406 L 138.257812 131.4375 L 138.441406 131.695312 L 138.617188 131.964844 L 138.789062 132.234375 L 138.949219 132.515625 L 139.105469 132.804688 L 139.253906 133.101562 L 139.394531 133.40625 L 139.53125 133.722656 L 139.65625 134.046875 L 139.777344 134.382812 L 139.890625 134.722656 L 139.996094 135.074219 L 135.816406 135.808594 L 135.75 135.585938 L 135.679688 135.363281 L 135.605469 135.152344 L 135.519531 134.941406 L 135.433594 134.734375 L 135.339844 134.535156 L 135.238281 134.339844 L 135.132812 134.152344 L 135.023438 133.964844 L 134.90625 133.785156 L 134.785156 133.609375 L 134.660156 133.441406 L 134.523438 133.277344 L 134.382812 133.121094 L 134.234375 132.96875 L 134.074219 132.824219 L 133.910156 132.683594 L 133.738281 132.546875 L 133.558594 132.417969 L 133.371094 132.296875 L 133.175781 132.179688 L 132.972656 132.066406 L 132.761719 131.960938 L 132.539062 131.863281 L 132.308594 131.769531 L 132.074219 131.679688 L 131.828125 131.597656 L 131.570312 131.519531 L 131.308594 131.449219 L 131.039062 131.386719 L 130.761719 131.324219 L 130.476562 131.273438 L 130.179688 131.226562 L 129.875 131.1875 L 129.558594 131.152344 L 129.234375 131.125 L 128.898438 131.101562 L 128.554688 131.085938 L 128.199219 131.078125 L 127.835938 131.074219 L 127.40625 131.078125 L 126.992188 131.089844 L 126.589844 131.109375 L 126.203125 131.136719 L 125.832031 131.175781 L 125.46875 131.21875 L 125.125 131.269531 L 124.792969 131.328125 L 124.472656 131.398438 L 124.167969 131.472656 L 123.878906 131.550781 L 123.605469 131.636719 L 123.339844 131.726562 L 123.082031 131.824219 L 122.839844 131.925781 L 122.609375 132.03125 L 122.386719 132.144531 L 122.175781 132.265625 L 121.976562 132.386719 L 121.789062 132.519531 L 121.617188 132.65625 L 121.453125 132.796875 L 121.300781 132.941406 L 121.15625 133.089844 L 121.023438 133.246094 L 120.898438 133.40625 L 120.785156 133.574219 L 120.679688 133.742188 L 120.585938 133.917969 L 120.5 134.097656 L 120.429688 134.277344 L 120.363281 134.460938 L 120.308594 134.644531 L 120.257812 134.832031 L 120.21875 135.023438 L 120.183594 135.21875 L 120.15625 135.417969 L 120.136719 135.621094 L 120.125 135.824219 L 120.125 136.03125 L 120.128906 136.304688 L 120.152344 136.570312 L 120.183594 136.828125 L 120.234375 137.074219 L 120.296875 137.308594 L 120.371094 137.535156 L 120.460938 137.75 L 120.5625 137.957031 L 120.679688 138.15625 L 120.8125 138.34375 L 120.960938 138.519531 L 121.117188 138.6875 L 121.28125 138.851562 L 121.460938 139.007812 L 121.644531 139.160156 L 121.839844 139.304688 L 122.046875 139.445312 L 122.261719 139.582031 L 122.488281 139.710938 L 122.722656 139.832031 L 122.96875 139.949219 L 123.21875 140.0625 L 123.476562 140.175781 L 123.746094 140.28125 L 124.019531 140.382812 L 124.300781 140.480469 L 124.589844 140.574219 L 124.886719 140.664062 L 125.191406 140.75 L 125.503906 140.832031 L 125.820312 140.914062 L 126.140625 140.992188 L 126.46875 141.074219 L 126.796875 141.152344 L 127.128906 141.234375 L 127.808594 141.390625 L 128.15625 141.472656 L 128.503906 141.550781 L 128.859375 141.632812 L 129.4375 141.765625 L 129.722656 141.835938 L 130.011719 141.902344 L 130.296875 141.972656 L 130.585938 142.039062 L 131.726562 142.320312 L 132.015625 142.390625 L 132.300781 142.460938 L 132.582031 142.535156 L 132.859375 142.613281 L 133.414062 142.777344 L 133.683594 142.863281 L 133.953125 142.953125 L 134.21875 143.046875 L 134.484375 143.144531 L 134.742188 143.238281 L 135 143.339844 L 135.253906 143.441406 L 135.503906 143.546875 L 135.75 143.65625 L 135.992188 143.769531 L 136.46875 144.003906 L 136.929688 144.253906 L 137.15625 144.386719 L 137.378906 144.523438 L 137.59375 144.667969 L 137.804688 144.816406 L 138.007812 144.972656 L 138.203125 145.132812 L 138.394531 145.300781 L 138.578125 145.472656 L 138.757812 145.648438 L 138.929688 145.832031 L 139.09375 146.023438 L 139.25 146.21875 L 139.402344 146.425781 L 139.542969 146.632812 L 139.679688 146.851562 L 139.804688 147.074219 L 139.925781 147.304688 L 140.039062 147.542969 L 140.144531 147.785156 L 140.238281 148.035156 L 140.332031 148.292969 L 140.417969 148.558594 L 140.488281 148.835938 L 140.554688 149.121094 L 140.605469 149.414062 L 140.652344 149.714844 L 140.683594 150.027344 L 140.710938 150.347656 L 140.722656 150.675781 Z M 140.730469 151.011719 "/>
<path style=" stroke:none;fill-rule:nonzero;fill:rgb(100%,100%,100%);fill-opacity:1;" d="M 321.878906 159.660156 L 321.878906 128.339844 L 326.121094 128.339844 L 326.121094 159.660156 Z M 321.878906 159.660156 "/>
<path style=" stroke:none;fill-rule:nonzero;fill:rgb(100%,100%,100%);fill-opacity:1;" d="M 529.800781 159.660156 L 521.664062 146.65625 L 511.90625 146.65625 L 511.90625 159.660156 L 507.660156 159.660156 L 507.660156 128.339844 L 522.398438 128.339844 L 522.925781 128.347656 L 523.441406 128.363281 L 523.941406 128.394531 L 524.433594 128.441406 L 524.910156 128.496094 L 525.375 128.5625 L 525.828125 128.644531 L 526.265625 128.738281 L 526.695312 128.84375 L 527.109375 128.960938 L 527.515625 129.085938 L 527.910156 129.222656 L 528.289062 129.371094 L 528.65625 129.53125 L 529.011719 129.703125 L 529.351562 129.882812 L 529.675781 130.074219 L 529.992188 130.277344 L 530.289062 130.492188 L 530.578125 130.71875 L 530.851562 130.953125 L 531.109375 131.199219 L 531.359375 131.457031 L 531.589844 131.726562 L 531.8125 132.003906 L 532.019531 132.289062 L 532.210938 132.585938 L 532.390625 132.894531 L 532.558594 133.214844 L 532.710938 133.542969 L 532.851562 133.878906 L 532.976562 134.226562 L 533.085938 134.578125 L 533.179688 134.941406 L 533.261719 135.3125 L 533.328125 135.695312 L 533.378906 136.082031 L 533.414062 136.480469 L 533.4375 136.882812 L 533.445312 137.296875 L 533.441406 137.59375 L 533.425781 137.890625 L 533.40625 138.1875 L 533.375 138.480469 L 533.335938 138.777344 L 533.285156 139.070312 L 533.226562 139.359375 L 533.160156 139.652344 L 533.085938 139.941406 L 533 140.230469 L 532.910156 140.519531 L 532.8125 140.800781 L 532.703125 141.078125 L 532.582031 141.347656 L 532.449219 141.617188 L 532.308594 141.878906 L 532.160156 142.136719 L 531.996094 142.386719 L 531.828125 142.636719 L 531.644531 142.878906 L 531.453125 143.113281 L 531.25 143.34375 L 531.039062 143.566406 L 530.816406 143.785156 L 530.582031 143.996094 L 530.339844 144.199219 L 530.085938 144.394531 L 529.824219 144.585938 L 529.550781 144.769531 L 529.265625 144.945312 L 528.972656 145.113281 L 528.664062 145.269531 L 528.347656 145.417969 L 528.019531 145.554688 L 527.675781 145.683594 L 527.324219 145.800781 L 526.960938 145.90625 L 526.585938 146.003906 L 526.199219 146.089844 L 525.796875 146.167969 L 534.691406 159.660156 Z M 529.175781 137.34375 L 529.171875 137.0625 L 529.15625 136.789062 L 529.132812 136.523438 L 529.097656 136.265625 L 529.054688 136.015625 L 529 135.769531 L 528.9375 135.535156 L 528.863281 135.308594 L 528.78125 135.085938 L 528.6875 134.875 L 528.585938 134.667969 L 528.476562 134.472656 L 528.355469 134.28125 L 528.226562 134.097656 L 528.089844 133.917969 L 527.941406 133.75 L 527.785156 133.585938 L 527.621094 133.429688 L 527.449219 133.28125 L 527.265625 133.140625 L 527.074219 133.003906 L 526.875 132.871094 L 526.667969 132.75 L 526.453125 132.632812 L 526.230469 132.523438 L 526 132.421875 L 525.761719 132.332031 L 525.515625 132.246094 L 525.261719 132.167969 L 525 132.097656 L 524.726562 132.027344 L 524.449219 131.96875 L 524.167969 131.914062 L 523.875 131.867188 L 523.574219 131.828125 L 523.269531 131.796875 L 522.957031 131.773438 L 522.636719 131.753906 L 522.308594 131.746094 L 521.976562 131.742188 L 511.90625 131.742188 L 511.90625 143.300781 L 522.152344 143.300781 L 522.511719 143.296875 L 522.863281 143.28125 L 523.203125 143.261719 L 523.53125 143.230469 L 523.855469 143.1875 L 524.164062 143.140625 L 524.464844 143.082031 L 524.757812 143.015625 L 525.039062 142.941406 L 525.308594 142.855469 L 525.570312 142.757812 L 525.824219 142.65625 L 526.066406 142.546875 L 526.296875 142.429688 L 526.519531 142.304688 L 526.734375 142.175781 L 526.9375 142.039062 L 527.128906 141.894531 L 527.3125 141.746094 L 527.488281 141.589844 L 527.65625 141.425781 L 527.816406 141.257812 L 527.964844 141.082031 L 528.105469 140.902344 L 528.238281 140.714844 L 528.359375 140.523438 L 528.472656 140.328125 L 528.578125 140.121094 L 528.671875 139.914062 L 528.753906 139.699219 L 528.835938 139.480469 L 528.90625 139.257812 L 528.96875 139.027344 L 529.023438 138.800781 L 529.070312 138.566406 L 529.109375 138.328125 L 529.140625 138.085938 L 529.160156 137.84375 L 529.171875 137.59375 Z M 529.175781 137.34375 "/>
</g>
</svg>
